<svg xmlns="http://www.w3.org/2000/svg" width="640" height="360" viewBox="0 0 640 360">
  <defs>
    <linearGradient id="bg" x1="0" y1="0" x2="1" y2="1">
      <stop offset="0" stop-color="#f0f4ff"/>
      <stop offset="1" stop-color="#fff4f4"/>
    </linearGradient>
    <linearGradient id="panel" x1="0" y1="0" x2="0" y2="1">
      <stop offset="0" stop-color="#ffffff"/>
      <stop offset="1" stop-color="#f4f7fb"/>
    </linearGradient>
  </defs>
  <rect width="100%" height="100%" rx="22" fill="url(#bg)"/>
  <rect x="56" y="46" width="528" height="268" rx="18" fill="url(#panel)" stroke="#d9e2ee"/>

  <rect x="100" y="92" width="120" height="176" rx="14" fill="#9fb8ff"/>
  <rect x="240" y="92" width="90" height="176" rx="14" fill="#8fd3ff"/>
  <rect x="350" y="92" width="120" height="176" rx="14" fill="#c7b6ff"/>
  <rect x="490" y="92" width="80" height="176" rx="14" fill="#ffd6a5"/>

  <rect x="112" y="236" width="96" height="10" rx="5" fill="#677489" opacity="0.6"/>
  <rect x="252" y="226" width="66" height="10" rx="5" fill="#677489" opacity="0.6"/>
  <rect x="362" y="246" width="96" height="10" rx="5" fill="#677489" opacity="0.6"/>
  <rect x="500" y="232" width="60" height="10" rx="5" fill="#677489" opacity="0.6"/>

  <circle cx="560" cy="64" r="10" fill="#34d399"/>
  <circle cx="532" cy="70" r="6" fill="#f97316"/>
</svg>
